<svg xmlns="http://www.w3.org/2000/svg" aria-label="Adventure map" viewBox="0 0 400 280"><defs><style>.map-node{fill:#2d4a3e;stroke:#d4a853;stroke-width:2}.map-label{fill:#f5f0e6;font-family:Georgia,serif;font-size:9px;text-anchor:middle}</style></defs><path d="m60 140 60-40m-60 40 60 40m0-80h60m0 0 60-20m0 0 60-20m0 0 40 60m0 0v80m0 0-60 40" style="stroke-width:2;stroke:#6b8f7a;fill:none;opacity:.6"/><circle id="node-start" cx="60" cy="140" r="14" class="map-node" data-node="start"/><text x="60" y="165" class="map-label">Start</text><circle id="node-jungle" cx="120" cy="100" r="12" class="map-node" data-node="jungle"/><text x="120" y="125" class="map-label">Jungle</text><circle id="node-lake" cx="120" cy="180" r="12" class="map-node" data-node="lake"/><text x="120" y="205" class="map-label">Lake</text><circle id="node-road" cx="180" cy="100" r="12" class="map-node" data-node="road"/><text x="180" y="125" class="map-label">Road</text><circle id="node-bear" cx="240" cy="80" r="12" class="map-node" data-node="bear"/><text x="240" y="105" class="map-label">Bear</text><circle id="node-map" cx="300" cy="60" r="12" class="map-node" data-node="map"/><text x="300" y="85" class="map-label">Map</text><circle id="node-ship" cx="340" cy="120" r="14" class="map-node" data-node="ship" style="stroke:#d4a853;stroke-dasharray:4 2"/><text x="340" y="145" class="map-label">Ship</text><circle id="node-sea" cx="340" cy="200" r="12" class="map-node" data-node="sea"/><text x="340" y="225" class="map-label">Sea</text><circle id="node-beach" cx="280" cy="240" r="12" class="map-node" data-node="beach"/><text x="280" y="265" class="map-label">Beach</text></svg>